<?xml version="1.0" encoding="utf-8"?>
<!-- Generator: Adobe Illustrator 19.1.0, SVG Export Plug-In . SVG Version: 6.00 Build 0)  -->
<svg version="1.1" id="Capa_1" xmlns="http://www.w3.org/2000/svg" xmlns:xlink="http://www.w3.org/1999/xlink" x="0px" y="0px"
	 viewBox="0 0 960 560" style="enable-background:new 0 0 960 560;" xml:space="preserve">
<style type="text/css">
	.st0{fill:#3333FF;stroke:#3333FF;stroke-miterlimit:10;}
	.st1{fill:#8585FF;stroke:#3333FF;stroke-miterlimit:10;}
	.st2{fill:#FFFFFF;stroke:#FFFFFF;stroke-miterlimit:10;}
	.st3{fill:#39B54A;stroke:#39B54A;stroke-miterlimit:10;}
	.st4{font-family:'MyriadPro-Regular';}
	.st5{font-size:9.1708px;}
	.st6{font-size:21.8608px;}
	.st7{font-size:38.9021px;}
	.st8{font-size:17.25px;}
	.st9{fill:none;stroke:#3333FF;stroke-width:9;stroke-miterlimit:10;}
	.st10{font-size:30.8367px;}
	.st11{font-size:16.2165px;}
	.st12{font-size:16.815px;}
</style>
<g>
	<rect x="89" y="138" class="st0" width="782" height="422"/>
	<rect class="st1" width="960" height="138"/>
	<g>
		<rect x="19.7" y="11.5" class="st2" width="113.9" height="114.9"/>
		<rect x="61.5" y="15.9" class="st0" width="9.6" height="86.8"/>
		<rect x="79.1" y="15.9" class="st0" width="9.6" height="86.8"/>
		<rect x="93.8" y="15.9" class="st3" width="9.6" height="86.8"/>
		<polyline class="st3" points="34,59.3 55.2,15.9 55.2,102.8 		"/>
		<text transform="matrix(1 0 0 1 24.4814 112.4126)"><tspan x="0" y="0" class="st4 st5">Laboratorio Computacional</tspan><tspan x="0" y="11" class="st4 st5">de Ciencia Ciudadana</tspan></text>
	</g>
	<text transform="matrix(1 0 0 1 179.0002 112.4125)" class="st4 st6">Conòcenos</text>
	<text transform="matrix(1 0 0 1 300.0002 112.4126)" class="st4 st6">Introducciòn</text>
	<text transform="matrix(1 0 0 1 110.0002 189.6752)" class="st4 st7">Introducciòn</text>
	<text transform="matrix(1 0 0 1 437.0002 112.4122)" class="st4 st6">Posts</text>
	<text transform="matrix(1 0 0 1 601.0001 112.4129)" class="st4 st6">Contacto</text>
	<text transform="matrix(1 0 0 1 501.0002 112.412)" class="st4 st6">Colabora</text>
	<path class="st2" d="M815,43H668c-6.6,0-12-5.4-12-12v-3.1c0-6.6,5.4-12,12-12h147c6.6,0,12,5.4,12,12V31C827,37.6,821.6,43,815,43
		z"/>
	<text transform="matrix(1.1601 0 0 1 669 35.041)" class="st4 st8">Buscar...</text>
	<line class="st9" x1="290.5" y1="85" x2="290.5" y2="124"/>
	<line class="st9" x1="171.5" y1="85" x2="171.5" y2="124"/>
	<line class="st9" x1="427.5" y1="85" x2="427.5" y2="124"/>
	<line class="st9" x1="493.5" y1="85" x2="493.5" y2="124"/>
	<line class="st9" x1="592.5" y1="85" x2="592.5" y2="124"/>
	<line class="st9" x1="693.5" y1="85" x2="693.5" y2="124"/>
	<text transform="matrix(1 0 0 1 171.5002 38.9462)" class="st4 st10">Auspiciado por INMEGEN</text>
	<text transform="matrix(1 0 0 1 110 215.4497)"><tspan x="0" y="0" class="st4 st11">Formalmente, la ciencia ciudadana ha sido definida como “la recopilación y análisis sistemático de datos, el</tspan><tspan x="0" y="19.5" class="st4 st11">desarrollo de la tecnología, las pruebas de losfenómenos naturales, y la difusión de estas actividades por los</tspan><tspan x="0" y="38.9" class="st4 st11">investigadores sobre una base principalmente vocacional”.</tspan><tspan x="0" y="77.8" class="st4 st11">El LC3 auspiciado por el Instituto Nacional de Medicina Genómica busca reunir científicos profesionales con</tspan><tspan x="0" y="97.3" class="st4 st11">ciudadanos entusiastas para colaborar en el desarrollo de proyectos de análisis de datos y visualización en torno</tspan><tspan x="0" y="116.8" class="st4 st11">a temas de Salud y Medicina Genómica en México.</tspan><tspan x="0" y="155.7" class="st4 st11">Esta página, junto con los datos y todo el software para las visualizaciones que compartimos están disponibles</tspan><tspan x="0" y="175.1" class="st4 st11">a través de un repositorio abierto a colaboración y escrutiño, aquí.</tspan><tspan x="0" y="214.1" class="st4 st11">¡Únete!</tspan></text>
	<text transform="matrix(1 0 0 1 364.0002 514.4136)" class="st4 st12">(Espacio para fotografia opcional)</text>
</g>
</svg>
